<svg width="250" height="250" viewBox="0 0 250 250" fill="none" xmlns="http://www.w3.org/2000/svg">
<rect width="250" height="250" fill="url(#paint0_radial_403_4)"/>
<path d="M0 167.5L47.5 135.5L71 146L123 110.5L160 133.5L250 110.5V250H0V167.5Z" fill="url(#paint1_linear_403_4)"/>
<path d="M139 194V165.5L239 144V180L139 194Z" fill="url(#paint2_linear_403_4)"/>
<path d="M1.13476e-05 231.275L15.0301 228.318V233.246L35.0702 230.289V235.217L82.1643 231.275V236.202L243.988 224.869V216.985L250 215.999V249.999H0L1.13476e-05 231.275Z" fill="url(#paint3_linear_403_4)"/>
<path d="M52.182 100.614L58.0665 86.8686L65.044 79.1825L82.1007 68.8304L91.4909 52.5073L101.994 43.7616L124.244 43.463L144.429 40.1551L164.669 40.8958L175.767 38.7223L179.839 40.6922L177.42 48.8233L163.862 56.0915L169.984 60.0586L190.662 55.7318L194.256 59.7329L192.82 65.826L162.65 78.8849L152.032 79.0274L142.902 77.1253L129.419 89.9603L122.442 97.6463L89.7776 113.269L86.798 117.359L92.4282 122.345L113.011 110.933L121.689 116.89L128.364 124.393L139.94 120.189L149.924 110.438L160.299 92.0766L170.297 83.3378L181.886 80.1453L186.505 85.1449L178.187 106.009L174.38 123.776L158.456 143.224L127.075 179.076L99.4198 191.089L88.6823 220.084L55.7667 216.983L31.3454 206.175L20.0307 192.154L33.3848 169.704L46.0362 132.584L52.182 100.614Z" fill="url(#paint4_linear_403_4)"/>
<path d="M211 53.1942L213 52.1942L216 51.6942L220 51.6942L220.065 51.664L223.296 52.1942L226.401 53.0297L228.297 54.4821L224.5 57.44L221.249 60.6942L219.867 63.1942L217.291 65.925L212.5 66.6942L208 64.6942L206.5 59.1942L208 55.6942L211 53.1942Z" fill="url(#paint5_linear_403_4)"/>
<path d="M120.2 99.5553L89.4971 113.566C86.8079 114.77 85.9368 118.168 87.7145 120.519C88.9891 122.205 91.2502 122.798 93.1868 121.954L162.599 89.7946M120.2 99.5553L161.466 80.7239C163.933 79.6196 164.228 79.5686 164.228 79.5686M120.2 99.5553C120.051 99.751 119.904 99.9479 119.758 100.146M120.2 99.5553C122.654 96.3248 125.521 93.4302 128.729 90.9463L130.742 89.3876C134.266 86.6584 137.476 83.5441 140.312 80.1024L141.766 78.3369M180.247 72.5111L186.133 69.9179M180.247 72.5111C180.731 71.9599 184.085 70.3249 184.725 66.7779C184.999 65.2649 184.896 63.366 183.746 62.1013C182.762 61.0201 181.334 60.458 179.878 60.5799L173.133 61.1447C169.989 61.408 166.831 60.8592 163.959 59.5509L159.529 57.5325M180.247 72.5111L164.228 79.5686M186.133 69.9179C186.133 69.9179 186.227 69.877 186.391 69.8025M186.133 69.9179L186.391 69.8025M162.599 89.7946C165.599 87.2304 167.718 85.8712 171.209 84.3316L175.844 82.6364L180.366 81.3589M162.599 89.7946C161.045 91.5271 159.165 94.6388 158.105 96.7123L153.702 105.326L148.463 112.782C145.992 116.299 142.756 119.208 138.999 121.29C137.473 122.136 135.872 122.839 134.216 123.39L128.785 125.198M164.228 79.5686L159.221 79.7352C155.138 79.9537 151.044 79.7529 147.003 79.1361L141.766 78.3369M79.154 70.624L69.8418 77.4015M79.154 70.624L86.7827 61.3653L94.1333 50.4471C95.2379 48.8064 96.6313 47.3806 98.2453 46.2394C100.311 44.7792 102.687 43.8205 105.185 43.4394L105.641 43.3699C106.828 43.1889 108.03 43.1257 109.23 43.1814L122.584 43.4394M79.154 70.624L89.6071 65.1012L98.8913 58.9233L105.157 53.5075C108.881 50.2881 112.988 47.5402 117.382 45.3259L122.584 43.4394M69.8418 77.4015C57.4547 80.6716 51.2845 102.375 50.2107 112.539L45.5574 135.153L35.7842 164.427C34.4028 168.564 32.5753 172.539 30.3341 176.28L20.0481 193.449L23.7705 197.542C28.1062 202.31 33.181 206.345 38.7997 209.494L39.6807 209.988C44.3271 212.592 49.2995 214.563 54.4665 215.85L61.6746 217.646C65.5028 218.6 69.4159 219.172 73.3567 219.355L88.9748 220.08L91.8044 210.304C92.776 206.947 94.0384 203.681 95.5772 200.544L99.8922 191.748M69.8418 77.4015L88.4922 71.4856C91.4755 70.5393 94.3803 69.3604 97.1799 67.9596L113.852 59.6178M99.8922 191.748L103.781 190.573C108.069 189.277 112.199 187.504 116.093 185.286L117.326 184.584C120.396 182.836 123.305 180.82 126.02 178.559L132.796 172.917C135.122 170.979 137.299 168.868 139.308 166.601L149.585 155.002L168.591 131.293C170.77 128.575 172.587 125.585 173.998 122.398L174.528 121.201C175.878 118.154 176.744 114.913 177.094 111.598C177.455 108.18 178.364 104.843 179.785 101.714L182.986 94.6697L185.538 86.8916C186.105 85.1659 185.533 83.2701 184.109 82.1471C183.052 81.3142 181.668 81.0227 180.366 81.3589M99.8922 191.748L98.8812 191.701C93.9882 191.474 89.1081 190.636 84.4167 189.227M180.366 81.3589L204.29 68.5394M128.785 125.198L126.4 125.271C122.793 125.381 119.184 125.152 115.62 124.587M128.785 125.198L126.392 122.234C124.968 120.47 123.358 118.865 121.59 117.447L119.181 116.023C117.631 114.78 113.395 114.754 112.279 113.109M141.766 78.3369C144.715 73.4151 145.921 67.6416 145.19 61.9496L144.999 60.4628M122.584 43.4394L139.564 41.2833C142.998 40.8442 146.464 40.7042 149.922 40.8647L158.748 41.2744C160.997 41.3788 163.25 41.2055 165.457 40.7584L175.162 38.792C176.089 38.6042 177.053 38.7934 177.84 39.3179C178.881 40.0116 179.483 41.2021 179.424 42.4539L179.363 43.7677C179.301 45.1038 178.786 46.3791 177.905 47.3837L175.546 50.0705C174.652 51.0891 173.633 51.9905 172.513 52.7531L172.095 53.0378C170.208 54.3228 168.117 55.2757 165.91 55.8556L159.529 57.5325M159.529 57.5325L167.227 58.4906L177.483 58.3658L190.248 56.4189C191.649 56.2053 193.032 56.8967 193.703 58.1459C193.742 58.2184 193.78 58.3012 193.816 58.3911C194.299 59.5735 194.16 60.9005 193.855 62.1404C193.53 63.4587 192.912 64.6873 192.048 65.7355L191.023 66.9786C189.901 68.1487 187.231 69.4196 186.391 69.8025M159.529 57.5325L141.369 46.7924C140.254 46.133 139.04 45.658 137.774 45.3857C134.454 44.6716 130.986 45.3948 128.225 47.3773L122.584 51.4274C121.377 52.2939 120.242 53.2561 119.188 54.3047L113.852 59.6178M67.3205 98.2264C67.3894 96.7492 66.6532 93.6924 68.3512 90.3006C69.4145 88.1766 71.161 86.4731 73.309 85.4651L81.6428 81.5541L90.8081 76.4435C93.3152 75.0455 95.7189 73.469 98.0006 71.7262L113.852 59.6178M186.391 69.8025L201.072 63.2252M204.29 68.5394L201.072 63.2252M204.29 68.5394L211.482 66.5113L211.366 66.4702C208.168 65.3372 206.329 61.9851 207.091 58.6789V58.6789L201.072 63.2252M213.901 66.8961L214.593 66.8868C216.297 66.864 217.934 66.2194 219.195 65.0748C219.767 64.555 220.249 63.9437 220.621 63.2659L221.453 61.7471C222.962 58.9955 225.319 56.8029 228.175 55.4949L229.581 54.8511C229.889 54.7099 229.877 54.2689 229.562 54.1439L227.608 53.3684C224.719 52.2221 221.613 51.7244 218.509 51.9105L216.398 52.0371C214.938 52.1247 213.51 52.5063 212.201 53.1591L211.266 53.6255C209.784 54.3644 208.581 55.5608 207.835 57.0368L207.448 57.8028C206.659 59.3646 206.61 61.1966 207.315 62.798C207.554 63.3392 207.873 63.8414 208.261 64.2873L208.392 64.437C209.777 66.025 211.792 66.9244 213.901 66.8961Z" stroke="url(#paint6_linear_403_4)" stroke-width="3"/>
<defs>
<radialGradient id="paint0_radial_403_4" cx="0" cy="0" r="1" gradientUnits="userSpaceOnUse" gradientTransform="translate(125 125) rotate(90) scale(125)">
<stop offset="0.677083" stop-color="#FF9900"/>
<stop offset="1" stop-color="#EA8C00"/>
</radialGradient>
<linearGradient id="paint1_linear_403_4" x1="125" y1="110.5" x2="125" y2="250" gradientUnits="userSpaceOnUse">
<stop stop-color="#FDAC35"/>
<stop offset="0.526042" stop-color="#FF9B06"/>
<stop offset="1" stop-color="#FFA826"/>
</linearGradient>
<linearGradient id="paint2_linear_403_4" x1="239" y1="162" x2="139" y2="178" gradientUnits="userSpaceOnUse">
<stop stop-color="#FFAB2E"/>
<stop offset="1" stop-color="#FDB13F"/>
</linearGradient>
<linearGradient id="paint3_linear_403_4" x1="125" y1="215.999" x2="125" y2="249.999" gradientUnits="userSpaceOnUse">
<stop stop-color="#FFD28F"/>
<stop offset="1" stop-color="#FFAB30"/>
</linearGradient>
<linearGradient id="paint4_linear_403_4" x1="15.697" y1="208.409" x2="348.848" y2="-82.7874" gradientUnits="userSpaceOnUse">
<stop stop-color="#F2CF9B"/>
<stop offset="1" stop-color="white" stop-opacity="0"/>
</linearGradient>
<linearGradient id="paint5_linear_403_4" x1="207.883" y1="66.4396" x2="239.114" y2="39.1418" gradientUnits="userSpaceOnUse">
<stop stop-color="#F2CF9B"/>
<stop offset="1" stop-color="white" stop-opacity="0"/>
</linearGradient>
<linearGradient id="paint6_linear_403_4" x1="238.507" y1="-9.66299" x2="5.89292" y2="233.809" gradientUnits="userSpaceOnUse">
<stop/>
<stop offset="1" stop-color="#C7882B"/>
<stop offset="1" stop-color="#C7882B"/>
</linearGradient>
</defs>
</svg>
